<svg xmlns="http://www.w3.org/2000/svg" width="1200" height="320" viewBox="0 0 1200 320" role="img" aria-labelledby="title desc">
  <title id="title">Nisar Muhammad — Enterprise technology and software engineering</title>
  <desc id="desc">Enterprise IT Infrastructure, Cloud Engineering, Cybersecurity and Automation, Software Development. Navy background with subtle network connections and abstract servers.</desc>
  <defs>
    <linearGradient id="background" x2="1" y2="1"><stop stop-color="#0D1117"/><stop offset="1" stop-color="#101D32"/></linearGradient>
    <linearGradient id="accent"><stop stop-color="#3B82F6"/><stop offset="1" stop-color="#22D3EE"/></linearGradient>
    <pattern id="grid" width="40" height="40" patternUnits="userSpaceOnUse"><path d="M40 0H0V40" fill="none" stroke="#94A3B8" stroke-opacity=".06"/></pattern>
  </defs>
  <rect width="1200" height="320" rx="20" fill="url(#background)"/>
  <rect width="1200" height="320" rx="20" fill="url(#grid)"/>
  <path d="M0 319H1200" stroke="url(#accent)" stroke-width="3"/>
  <g fill="none" stroke="#3B82F6" stroke-opacity=".22" stroke-width="1.5">
    <path d="M870 0V72L944 112H1090L1200 48M830 320V258L944 200H1090L1200 268M944 112V200M1090 112V200"/>
    <circle cx="1017" cy="156" r="111"/><circle cx="1017" cy="156" r="137" stroke-dasharray="3 12"/>
  </g>
  <g fill="#101D32" stroke="#22D3EE" stroke-opacity=".65" stroke-width="1.5">
    <rect x="957" y="113" width="120" height="28" rx="6"/><rect x="957" y="151" width="120" height="28" rx="6"/><rect x="957" y="189" width="120" height="28" rx="6"/>
  </g>
  <g fill="#22D3EE"><circle cx="973" cy="127" r="3"/><circle cx="973" cy="165" r="3"/><circle cx="973" cy="203" r="3"/><circle cx="944" cy="112" r="4"/><circle cx="1090" cy="200" r="4"/></g>
  <g stroke="#94A3B8" stroke-opacity=".6"><path d="M1022 127H1061M1022 165H1061M1022 203H1061"/></g>
  <rect x="48" y="49" width="48" height="4" rx="2" fill="url(#accent)"/>
  <g font-family="Segoe UI, Arial, sans-serif">
    <text x="48" y="128" font-size="76" font-weight="700" letter-spacing="-2" fill="#F8FAFC">Nisar Muhammad</text>
    <text x="50" y="205" font-size="34" fill="#F8FAFC">Enterprise IT Infrastructure | Cloud Engineering</text>
    <text x="50" y="263" font-size="33" fill="#94A3B8">Cybersecurity • Automation • Software Development</text>
  </g>
</svg>
